<svg xmlns="http://www.w3.org/2000/svg" width="2500" height="1686" viewBox="0 0 2500 1686">
  <defs>
    <style>
      .label {
        font-family: "Apple SD Gothic Neo", "Hiragino Sans", "Hiragino Kaku Gothic ProN", sans-serif;
        font-size: 84px;
        font-weight: 900;
        fill: #173A25;
        text-anchor: middle;
        dominant-baseline: middle;
      }
      .small {
        font-family: "Apple SD Gothic Neo", "Hiragino Sans", "Hiragino Kaku Gothic ProN", sans-serif;
        font-size: 70px;
        font-weight: 900;
        fill: #173A25;
        text-anchor: middle;
        dominant-baseline: middle;
      }
      .line { stroke: #FFFFFF; stroke-width: 10; stroke-linecap: square; }
      .green { fill: #06C755; }
      .deep { fill: #173A25; }
      .cream { fill: #FAF2DC; }
      .cream2 { fill: #FFF8E8; }
      .brown { fill: #8B5A2B; }
      .tan { fill: #D9A05F; }
      .orange { fill: #F2A541; }
      .darkgreen { fill: #0D7F42; }
      .midgreen { fill: #6BBF59; }
      .softgreen { fill: #CFE9B2; }
      .road { fill: #6B6B62; }
      .stroke {
        fill: none;
        stroke: #173A25;
        stroke-width: 18;
        stroke-linecap: round;
        stroke-linejoin: round;
      }
    </style>
    <g id="cedar">
      <rect x="-10" y="50" width="20" height="55" rx="8" fill="#8B5A2B"/>
      <path d="M0 0 L-55 62 H55 Z" fill="#0D7F42"/>
      <path d="M0 33 L-70 105 H70 Z" fill="#06C755"/>
    </g>
    <g id="paw">
      <ellipse cx="0" cy="18" rx="30" ry="24" fill="#173A25"/>
      <circle cx="-32" cy="-14" r="13" fill="#173A25"/>
      <circle cx="-10" cy="-30" r="13" fill="#173A25"/>
      <circle cx="14" cy="-29" r="13" fill="#173A25"/>
      <circle cx="36" cy="-12" r="13" fill="#173A25"/>
    </g>
    <g id="bear-face">
      <circle cx="0" cy="0" r="58" fill="#8B5A2B"/>
      <circle cx="-43" cy="-42" r="24" fill="#8B5A2B"/>
      <circle cx="43" cy="-42" r="24" fill="#8B5A2B"/>
      <circle cx="-43" cy="-42" r="12" fill="#D9A05F"/>
      <circle cx="43" cy="-42" r="12" fill="#D9A05F"/>
      <ellipse cx="0" cy="17" rx="34" ry="24" fill="#D9A05F"/>
      <circle cx="-19" cy="-7" r="7" fill="#173A25"/>
      <circle cx="19" cy="-7" r="7" fill="#173A25"/>
      <ellipse cx="0" cy="11" rx="11" ry="8" fill="#173A25"/>
      <path d="M-12 28 Q0 38 12 28" class="stroke" stroke-width="7"/>
    </g>
    <g id="hills">
      <path d="M0 110 C130 5 250 5 380 110 Z" fill="#CFE9B2"/>
      <path d="M205 110 C330 20 455 20 575 110 Z" fill="#A7D783"/>
      <path d="M410 110 C520 40 640 40 742 110 Z" fill="#6BBF59"/>
    </g>
  </defs>

  <rect width="2500" height="1686" fill="#FAF2DC"/>

  <rect x="0" y="0" width="833.333" height="843" fill="#FFF8E8"/>
  <rect x="833.333" y="0" width="833.334" height="843" fill="#FAF2DC"/>
  <rect x="1666.667" y="0" width="833.333" height="843" fill="#FFF8E8"/>
  <rect x="0" y="843" width="833.333" height="843" fill="#FAF2DC"/>
  <rect x="833.333" y="843" width="833.334" height="843" fill="#FFF8E8"/>
  <rect x="1666.667" y="843" width="833.333" height="843" fill="#FAF2DC"/>

  <g opacity="0.95">
    <use href="#hills" x="45" y="604" transform="scale(1.0 0.9)"/>
    <use href="#hills" x="878" y="604" transform="scale(1.0 0.9)"/>
    <use href="#hills" x="1712" y="604" transform="scale(1.0 0.9)"/>
    <use href="#hills" x="45" y="1447" transform="scale(1.0 0.9)"/>
    <use href="#hills" x="878" y="1447" transform="scale(1.0 0.9)"/>
    <use href="#hills" x="1712" y="1447" transform="scale(1.0 0.9)"/>
  </g>

  <g opacity="0.96">
    <use href="#cedar" x="88" y="54" transform="scale(0.9)"/>
    <use href="#cedar" x="735" y="604" transform="scale(0.75)"/>
    <use href="#cedar" x="1567" y="52" transform="scale(0.8)"/>
    <use href="#cedar" x="2415" y="610" transform="scale(0.75)"/>
    <use href="#cedar" x="106" y="905" transform="scale(0.8)"/>
    <use href="#cedar" x="1556" y="1460" transform="scale(0.75)"/>
    <use href="#cedar" x="2417" y="907" transform="scale(0.8)"/>
  </g>

  <!-- 1. クマ地図 -->
  <g transform="translate(416.667 318)">
    <rect x="-190" y="-120" width="380" height="260" rx="36" fill="#06C755"/>
    <path d="M-63 -103 V124 M63 -124 V105" stroke="#FFFFFF" stroke-width="8" stroke-linecap="round" opacity="0.9"/>
    <path d="M-164 20 C-92 -25 -20 -25 46 15 S120 70 164 28" stroke="#FFFFFF" stroke-width="14" fill="none" stroke-linecap="round"/>
    <path d="M-105 -74 C-50 -36 6 -48 60 -86 C104 -117 145 -92 163 -59" stroke="#FFFFFF" stroke-width="14" fill="none" stroke-linecap="round"/>
    <circle cx="-122" cy="77" r="18" fill="#F2A541"/>
    <circle cx="122" cy="-62" r="18" fill="#F2A541"/>
    <g transform="translate(10 8) rotate(-10) scale(1.15)">
      <use href="#paw"/>
    </g>
    <g transform="translate(160 -150) scale(0.9)">
      <use href="#bear-face"/>
    </g>
  </g>
  <text x="416.667" y="672" class="label">クマ地図</text>

  <!-- 2. 目撃をしらせる -->
  <g transform="translate(1250 320)">
    <rect x="-92" y="-174" width="184" height="348" rx="32" fill="#173A25"/>
    <rect x="-66" y="-134" width="132" height="238" rx="18" fill="#FAF2DC"/>
    <circle cx="0" cy="138" r="16" fill="#FAF2DC"/>
    <path d="M112 -46 C112 -112 165 -166 231 -166 C297 -166 350 -112 350 -46 C350 45 231 150 231 150 C231 150 112 45 112 -46Z" fill="#06C755"/>
    <circle cx="231" cy="-46" r="44" fill="#FFFFFF"/>
    <path d="M-38 -42 L-5 26 L47 -76" class="stroke" stroke="#06C755" stroke-width="16"/>
    <g transform="translate(-150 -142) scale(0.72)">
      <use href="#bear-face"/>
    </g>
  </g>
  <text x="1250" y="672" class="small">目撃をしらせる</text>

  <!-- 3. クマ撃退ブザー -->
  <g transform="translate(2083.333 310)">
    <path d="M-200 -64 H-82 L64 -150 V150 L-82 64 H-200 Z" fill="#06C755"/>
    <path d="M95 -92 C147 -40 147 40 95 92" class="stroke" stroke="#173A25" stroke-width="18"/>
    <path d="M145 -145 C229 -59 229 59 145 145" class="stroke" stroke="#173A25" stroke-width="18"/>
    <circle cx="-210" cy="-128" r="44" fill="#F2A541"/>
    <rect x="-242" y="-88" width="64" height="142" rx="28" fill="#8B5A2B"/>
    <path d="M-258 -162 C-214 -207 -162 -185 -152 -132" class="stroke" stroke="#173A25" stroke-width="13"/>
    <path d="M230 -5 L297 -5 M217 -69 L277 -106 M217 69 L277 106" class="stroke" stroke="#F2A541" stroke-width="16"/>
    <g transform="translate(-142 132) rotate(-18) scale(0.78)">
      <use href="#paw"/>
    </g>
  </g>
  <text x="2083.333" y="672" class="small">クマ撃退ブザー</text>

  <!-- 4. 通知エリア設定 -->
  <g transform="translate(416.667 1160)">
    <path d="M-42 -144 C-42 -204 42 -204 42 -144 C118 -116 142 -54 142 30 V90 H-142 V30 C-142 -54 -118 -116 -42 -144Z" fill="#06C755"/>
    <path d="M-66 96 C-42 148 42 148 66 96" fill="#F2A541"/>
    <path d="M-142 90 H142" class="stroke" stroke="#173A25" stroke-width="14"/>
    <path d="M-270 108 V-18 L-130 -138 L10 -18 V108 Z" fill="#FAF2DC" stroke="#173A25" stroke-width="18" stroke-linejoin="round"/>
    <path d="M-302 -10 L-130 -158 L42 -10" class="stroke" stroke="#06C755" stroke-width="24"/>
    <rect x="-178" y="12" width="94" height="96" rx="14" fill="#D9A05F"/>
    <circle cx="-109" cy="62" r="7" fill="#173A25"/>
    <path d="M156 -138 C206 -108 236 -53 236 12 M-208 -178 C-248 -142 -274 -91 -280 -34" class="stroke" stroke="#F2A541" stroke-width="15"/>
  </g>
  <text x="416.667" y="1514" class="small">通知エリア設定</text>

  <!-- 5. 交通・くらし情報 -->
  <g transform="translate(1250 1162)">
    <path d="M-284 170 C-210 55 -120 -46 0 -145 C120 -46 210 55 284 170 Z" fill="#6B6B62"/>
    <path d="M0 -122 C-40 8 -43 96 -36 170 H36 C43 96 40 8 0 -122Z" fill="#FAF2DC"/>
    <rect x="-250" y="-118" width="286" height="214" rx="30" fill="#06C755"/>
    <rect x="-218" y="-84" width="222" height="78" rx="14" fill="#FAF2DC"/>
    <circle cx="-188" cy="108" r="35" fill="#173A25"/>
    <circle cx="-24" cy="108" r="35" fill="#173A25"/>
    <circle cx="-188" cy="108" r="14" fill="#FFFFFF"/>
    <circle cx="-24" cy="108" r="14" fill="#FFFFFF"/>
    <rect x="-205" y="18" width="36" height="34" rx="8" fill="#F2A541"/>
    <rect x="-70" y="18" width="36" height="34" rx="8" fill="#F2A541"/>
    <path d="M124 -130 H252 V66 H124 Z" fill="#FAF2DC" stroke="#173A25" stroke-width="16" stroke-linejoin="round"/>
    <path d="M152 -80 H225 M152 -28 H225 M152 24 H206" class="stroke" stroke="#06C755" stroke-width="13"/>
  </g>
  <text x="1250" y="1514" class="small">交通・くらし情報</text>

  <!-- 6. つかいかた -->
  <g transform="translate(2083.333 1160)">
    <path d="M-230 -122 H-20 C45 -122 92 -82 92 -18 V138 H-118 C-180 138 -230 93 -230 30 Z" fill="#06C755"/>
    <path d="M92 -18 C92 -82 139 -122 204 -122 H238 V138 H92 Z" fill="#CFE9B2"/>
    <path d="M92 -18 V138" class="stroke" stroke="#173A25" stroke-width="14"/>
    <path d="M-184 -60 H-25 M-184 -5 H-40 M132 -60 H207 M132 -5 H207 M132 50 H207" class="stroke" stroke="#FFFFFF" stroke-width="14"/>
    <circle cx="-2" cy="-184" r="88" fill="#F2A541"/>
    <text x="-2" y="-171" style="font-family:'Apple SD Gothic Neo','Hiragino Sans',sans-serif;font-size:144px;font-weight:900;fill:#173A25;text-anchor:middle;dominant-baseline:middle;">?</text>
    <g transform="translate(225 108) scale(0.68)">
      <use href="#bear-face"/>
    </g>
  </g>
  <text x="2083.333" y="1514" class="label">つかいかた</text>

  <line x1="833.333" y1="0" x2="833.333" y2="1686" class="line"/>
  <line x1="1666.667" y1="0" x2="1666.667" y2="1686" class="line"/>
  <line x1="0" y1="843" x2="2500" y2="843" class="line"/>
</svg>
